<svg version="1" xmlns="http://www.w3.org/2000/svg" width="3357.333" height="3357.333" viewBox="0 0 2518.000000 2518.000000"><path d="M1542.9 615.4c-.2.2-4.4.6-9.4 1-11.1.7-29.6 3.1-39 5.1-3.8.7-8.6 1.7-10.5 2-16.6 2.8-42.2 11.6-60.7 20.7-18.7 9.2-27.1 21.2-27.1 38.9 0 19.8 13.3 36.5 32.3 40.7 6.1 1.4 18.9.9 23-.8 1.7-.7 6.3-2.8 10.3-4.7 16.3-7.5 43.7-15 62.2-16.9 3.6-.3 6.7-.8 7-.9 1.1-.7 24.9-1.9 36.5-1.9 14.7 0 33.7 1 43 2.3 3.9.6 8.8 1.3 11 1.5 2.2.3 5.1.8 6.5 1.1 1.4.3 4.1.8 6 1.1 10.7 1.8 34.8 8.8 40.1 11.6 11.4 6 16.7 13.3 23.9 32.7 3 8.2 5.6 15.3 5.7 15.8.2.4 8.6 23.5 18.7 51.3l18.5 50.5-.3 8c-.3 8.2-.5 8.8-2.4 14-4.4 11.4-14 20.4-26 24.4l-6.2 2.1-409.7-.2-409.8-.3-5.8-2.5c-11.6-5-16-10.6-35.9-46-1.1-1.9-2.5-4.1-3.1-4.8-1.8-2.2-.1-2.8 12.8-4.8 1.7-.2 6.9-1.3 14.1-2.8 1.2-.2 3.9-.7 6-1 2.2-.4 4.6-.8 5.4-1.1.8-.2 3.3-.6 5.5-1 2.2-.3 5.6-1 7.5-1.5 1.9-.5 5.1-1.2 7-1.5 15-2.6 55.6-12.3 77.8-18.6 44.8-12.8 70.2-25.3 76.7-37.8 1.8-3.6 1.6-11.1-.4-14.9-1.8-3.4-8.3-8.4-14.6-11.3-6.1-2.8-20.6-7.4-26-8.3-1.6-.3-6.8-1.2-11.5-2s-10.5-1.8-13-2.1c-2.5-.3-5.6-.8-7-1-2.3-.3-6.4-.8-17.7-2-6.6-.7-15.7-1.4-39.8-3-22.8-1.5-48.5-2-120.5-2-44.3 0-82.7.3-85.5.7-31.4 4.5-50.8 20.4-57 46.8-1.5 6.5-1.5 26.2 0 34 7 36.6 37.3 55.7 78.7 49.5 12.9-2 12.3-2.1 14.5 2.2 1 2.1 8.3 15 16.2 28.6 7.9 13.7 15.2 27 16.2 29.7 2.7 7.1 2.2 21.6-1.1 29-1.3 3-2.7 5.7-3 6-.3.3-6.2 10.4-13.1 22.5-7 12.1-13.6 23.6-14.8 25.5-1.1 1.9-2.4 4.2-2.8 5-.4.8-6.5 11.4-13.5 23.4-7 12.1-12.8 22.1-12.8 22.2 0 .1-2.7 4.8-6 10.4-3.3 5.6-6 10.4-6 10.7 0 .3-1.3 2.5-3 5-1.6 2.4-3 4.6-3 4.8 0 .2-2.8 5.2-6.3 11.2-3.5 5.9-6.6 11.5-7 12.3-.4.8-1.6 2.8-2.6 4.5-1 1.6-6.2 10.6-11.6 20-5.4 9.3-13.9 24-18.8 32.5-5 8.5-12.4 21.4-16.5 28.6l-7.6 13.1-8.5-3.7c-19.4-8.4-53.8-19.6-72.1-23.4-18-3.8-21.7-4.5-25.5-5-2.2-.4-5.1-.8-6.5-1.1-6.9-1.2-23-3.1-36.5-4.1-17.5-1.4-60.1-.8-75.5 1-1.9.3-5.7.7-8.5 1-4.8.6-6.8.9-15.8 2.1-7.6 1-29 5.4-39.2 8-5.5 1.4-11 2.8-12.2 3-4.9 1.1-28.5 9-39 13.1-22.6 8.7-40 16.9-60.7 28.7-27.2 15.5-49.2 31.3-75.1 53.7-8.4 7.2-36.5 35.9-44.1 45-4.3 5.2-8.1 9.7-8.4 10-1.6 1.5-18.5 24.8-23.7 32.5-16.4 24.6-31.9 54.3-43 82.4-3.7 9.3-14.3 40.3-14.3 41.7 0 .2 19.7.4 43.8.4h43.8l4.9-12.3c9.4-23.8 24.9-52.4 39.9-73.7 13.3-18.9 24.2-31.7 42.1-49.5 39.6-39.4 86.1-68 140-86.3 18.4-6.2 45.9-12.6 63.1-14.7 3.3-.4 6.8-.9 7.8-1.1 6.8-1.2 22.4-1.9 44.1-1.9 22.2.1 30.7.5 42.3 2.1 18.5 2.5 24.4 3.5 37 6.5 17 4 41.7 11.6 49.9 15.4 1.7.8 3.5 1.5 4 1.5.4 0 1.4.4 2.2.9 1.5 1 1.8.6-23.7 44.6-8 13.7-16.3 28.1-18.5 32-2.2 3.8-9.5 16.4-16.2 28-6.7 11.5-22.5 39-35.2 61-12.7 22-24.1 41.7-25.3 43.8l-2.2 3.7H569.5l11.5-19.8c6.2-10.8 16.8-29.2 23.5-40.7 6.7-11.6 13.3-23 14.7-25.5 1.4-2.5 4.9-8.6 7.8-13.5 2.9-5 6.2-10.8 7.5-13 1.2-2.2 7.8-13.7 14.7-25.5 6.8-11.8 13.9-24.1 15.7-27.3 1.8-3.1 3.5-5.7 3.7-5.7.3 0 3.3 2.1 6.7 4.7 23.1 17.7 45.8 39.9 63.9 62.6 22.2 27.9 41.1 60.5 53.8 92.9l4.2 10.8H884.9l-.9-2.8c-12.6-40.2-24.4-67.7-41.4-97.2-21-36.2-42.2-63.7-72-93.5-21-20.9-29.5-28.1-59.6-50.3-.2-.2.6-2.2 2-4.5 3.8-6.6 38.1-66.2 49.9-86.7 53.6-92.9 51.2-89.3 63.9-95.3 5.9-2.8 7.7-3.1 15.7-3.2 5 0 10.4.3 12.2.7 4.8.9 13.1 5.8 17.8 10.3 4.5 4.4 5.7 6.2 23 36.5 6.5 11.3 16.6 28.8 22.5 39 16.4 28.3 40.5 70.1 42.8 74 3.4 6 7.5 13.2 61.7 107 29.1 50.3 59.2 102.5 67 116 7.8 13.5 17.5 30.2 21.5 37.2l7.5 12.8h96.4l-1.8-3.3c-17.1-29.6-54.6-94.5-56.9-98.3-1.6-2.8-4.4-7.6-6-10.5-1.6-3-11.2-19.6-21.2-36.9-10.1-17.3-19.4-33.5-20.8-36-1.4-2.5-6.3-10.9-10.9-18.8-4.5-7.8-8.3-14.5-8.3-14.8 0-.3-1.3-2.5-3-4.9-1.6-2.4-3-4.6-3-4.8 0-.2-2.9-5.4-6.4-11.5-3.6-6.1-7.6-13.1-8.9-15.4-1.3-2.4-16.4-28.4-33.4-57.8s-34.4-59.6-38.7-67c-4.3-7.4-8.2-14.2-8.7-15-1.2-1.9-23.7-41-27.4-47.5-7.3-12.8-9-18.6-8.2-27.7.6-8.1 1.1-9.8 4.2-16.2 4.9-10.1 17.3-20 27.6-22.2 1.3-.2 148.2-.5 326.5-.5 347.6-.1 327.6-.4 337.4 4.9 16.8 9.1 25.4 30.4 19.5 48.3-2.6 7.9-4.3 10.3-18 26.4-3.3 3.8-8.1 9.5-10.5 12.5-2.5 3-4.7 5.7-5 6-.3.3-10 11.7-21.5 25.5-30.1 35.9-51.8 61.8-53 63.1-.5.7-7.3 8.7-15 17.9-7.7 9.3-20.5 24.5-28.4 33.9-7.9 9.4-16 19.1-18.1 21.6-2.1 2.5-8.8 10.5-14.9 17.8-16.5 19.6-30.2 36-52.6 62.8-11 13.1-20.2 24.1-20.5 24.4-.5.4-45 53.4-49 58.4-.8 1-2 2.3-2.5 3-.6.6-8 9.4-16.5 19.6-8.5 10.2-15.7 18.7-16 19-.3.3-8.4 9.9-18 21.5-9.6 11.5-17.9 21.3-18.5 21.7-.5.4 23.8.8 54 .8h55l5.6-6.8c16-19.2 53.4-63.8 53.9-64.2.3-.3 3.5-4.1 7-8.5 3.6-4.4 7-8.5 7.5-9.1 2-2.3 10.5-12.3 21-24.9 6-7.2 12.2-14.6 13.9-16.6 4.2-4.8 5.7-6.6 23.5-27.9 8.5-10.2 22.5-26.8 31-37 8.6-10.2 16.3-19.4 17.3-20.5.9-1.1 4.7-5.6 8.4-10s8.5-10.2 10.8-12.9c2.3-2.7 5.7-6.8 7.6-9.1 1.9-2.2 5.4-6.3 7.6-9.1 15.3-18.3 31.9-38 32.4-38.4.3-.3 2.5-3 5-6s5.5-6.6 6.6-8c1.2-1.4 8.4-9.9 16-19 16.2-19.4 48.9-58.4 54.8-65.4 2.2-2.7 4.6-5.4 5.1-6 .6-.6 6.4-7.5 12.9-15.3 17.1-20.4 23.8-24.6 40.1-24.6 6.8 0 10.3.5 14.5 2.1 7.6 3 14.8 8.7 19.1 15.2 3.7 5.6 4.5 7.7 21.9 55.5 14.2 39 17.5 48.2 22.6 62.2 2.4 6.8 4.8 13.2 5.4 14.3.6 1.1.9 2 .6 2-.3 0 .2 1.6 1 3.6s1.4 3.7 1.2 3.9c-.2.1-4 2.1-8.5 4.3-24.6 12.2-55.8 32.1-75.4 48.1-3.1 2.5-6.9 5.6-8.5 6.9-10.7 8.4-42.3 39.2-51.4 50.1-2.5 3-6.1 7.3-8.2 9.7-19.1 22.5-42.9 59.8-56.9 88.9-9.4 19.8-22 51.5-24.4 61.5-.2.8-1 3.6-1.8 6.3l-1.5 4.7 44-.2 44-.3 2.4-6.5c1.3-3.6 2.9-7.5 3.4-8.8.6-1.2 1.4-3.2 1.9-4.5 3.5-8.3 13.2-27.8 18.3-36.7 28.7-50.1 68.3-92.3 115.9-123.6 16.3-10.7 34.8-20.9 35.8-19.8.4.5 2.9 6.7 5.5 13.9 2.6 7.1 5.4 14.6 6.1 16.6.8 2 5.2 14.4 10 27.5 4.7 13.2 8.9 24.6 9.2 25.4.4.8.7 1.8.8 2.2.2.5.4 1 .5 1.3.1.3.3.8.5 1.2.1.5.5 1.5.8 2.3.8 2 6.7 18.1 11.2 31 2.1 5.8 4.3 11.8 5 13.5.7 1.6 6.3 17.1 12.5 34.2l11.3 31.3h44.4c24.3 0 44.3-.3 44.3-.6 0-.5-26.3-73-67.6-186.1-8.5-23.3-15.4-42.7-15.4-43.2 0-.4 1.9-1.2 4.3-1.6 2.3-.4 4.7-.9 5.2-1 2.9-.8 18.7-3.5 23-4 2.8-.4 6.1-.8 7.5-1.1 8.2-1.3 22.5-1.9 45-1.9 24 .1 37.6 1.1 56 4 6.1 1 24 4.8 29.5 6.2 3.3.8 6.5 1.6 7 1.7 8.2 1.9 36.1 11.6 47.2 16.5 44.6 19.6 79.8 43.5 113.4 77.1 22 22 36.4 40.3 54.7 69.6 6.9 11.1 21 39.7 26.2 53.2l4.3 11.2h87.8l-.6-2.3c-13.4-44.4-30-80.6-53.9-117.7-4.4-6.9-8.4-13-8.8-13.5-.5-.6-4.8-6.2-9.6-12.6-14.7-19.6-20.3-26-40.5-46.4-8.7-8.8-18.2-17.9-21-20.3-2.9-2.3-6.6-5.5-8.3-7.1-1.7-1.6-8.8-7.3-15.8-12.5-38.9-29.6-80.7-52-125.1-67.3-5.5-1.9-10.7-3.6-11.5-3.8-.8-.2-4.5-1.3-8.1-2.4-16.7-5.3-53.2-12.7-71.4-14.6-3.3-.4-7.1-.8-8.5-1-6-1-28-1.9-45.5-1.9-16.9 0-43.1 1.1-44.5 1.9-.3.1-3.4.6-7 .9-3.6.4-8.1.9-10 1.2-3.1.5-5.7.9-18 2.9-1.9.3-8.7 1.7-15 3.1-6.3 1.4-12.8 2.7-14.5 3l-3 .5-29.3-80.8c-32.6-89.9-40.4-111.2-42.6-116.9-.8-2.2-4.7-12.9-8.6-23.9-3.9-11-7.6-20.9-8.1-22-.5-1.1-1.3-3.4-1.8-5-.5-1.7-5.7-16.1-11.6-32-5.9-16-11-30.1-11.5-31.5-.4-1.4-4.2-12-8.5-23.5-8.4-22.7-15.2-41.5-16.5-45.5-.5-1.4-2.2-6.1-3.8-10.5-1.7-4.4-11.2-30.5-21.1-58-21.8-59.9-21.7-59.6-24.9-66.5-6.1-13-29.9-30.6-57.2-42.3-12-5.1-29.3-11-38.6-13.2-1.1-.2-5.7-1.4-10.4-2.5s-10.7-2.3-13.5-2.6c-2.7-.3-5.3-.7-5.6-.9-.3-.2-2.8-.7-5.5-1-2.7-.4-5.6-.8-6.4-1-.8-.2-4.6-.7-8.5-1-3.8-.4-8.3-.9-10-1.1-3.8-.6-63-1.6-63.6-1zM40.7 1547.6c-4.7 1.5-12 7.5-12.7 10.5-.2.8-.5 57.7-.7 126.6-.3 118.8-.2 125.2 1.4 125.7 1 .2 4.7.8 8.3 1.1 3.6.4 7.2.9 8 1 10.3 1.9 65.6 2.7 77.8 1.2 48.1-5.9 79.2-31.2 88.6-72.1 4.2-17.8 4-40.8-.3-57.6-7.4-29.2-28.3-50.7-57.1-59-9.9-2.9-31.5-3.7-40.8-1.5-12 2.8-25.8 10.1-32.1 16.9-1.4 1.4-2.7 2.6-3 2.6-.4 0-.6-20.7-.6-46.1 0-29.9-.3-46.3-1-46.9-2.1-1.7-15.7-4-23.2-3.9-4.3 0-10 .7-12.6 1.5zM132 1665c13.8 4.2 24.1 16.4 28.7 34 2.4 9.3 2.3 29.3-.1 38-5.5 19.3-17.3 31.2-36.1 36.7-10.2 2.9-42.5 2.1-45.8-1.1-1.9-2-1.5-68.9.5-77.1 4.2-16.9 14.8-28.2 29.3-31.4 5.6-1.2 18.1-.7 23.5.9zM277.5 1547.4c-12.2 4.6-18.1 12.7-18.4 25.3-.3 8.8 1.9 14.3 7.8 20.1 6.1 5.9 10.4 7.6 19.2 7.9 6.1.1 8.5-.3 12.5-2.1 5.8-2.8 10.8-7.5 13.7-13 2.9-5.6 3.1-18.3.3-24-2.5-5-7.5-10-12.9-12.8-4.9-2.5-17.2-3.4-22.2-1.4zM381.2 1547.8c-6.4 2.3-8.9 4.5-11.3 9.7-1.8 3.8-1.8 10.1-1.9 128.3V1810l25.2-.2 25.3-.3v-39.7c0-29.9.3-39.5 1.2-39 4.5 2.6 33.5 30.8 48 46.8 8.6 9.5 23.7 27.5 25.7 30.6 1 1.7 3.3 1.8 32.5 1.8h31.3l-1.7-2.8c-6.6-10.1-26.5-35.5-39.9-50.7-8.1-9.2-33.6-34.8-40.9-41.1l-5.8-5 10.7-8.4c5.9-4.7 11.2-9 11.8-9.5.6-.6 4.5-3.7 8.6-7 23.3-18.8 46-38.8 46-40.6 0-2.4-8.8-10.2-14.9-13.2-6.2-3-7.2-3.2-17.2-3.2-10.3 0-10.9.2-18 3.8-7.2 3.6-22 15.4-46.5 36.8-21.1 18.4-30.4 26-30.5 24.7-.1-.7-.2-33.3-.3-72.3l-.1-71-5.5-1.9c-8.3-2.8-25-3.2-31.8-.8zM1099.2 1547.9c-6.3 2.2-8.9 4.4-11.3 9.6-1.8 3.8-1.8 10.1-1.9 128.3V1810l25.2-.2 25.3-.3.1-53.5c.1-53.5.3-56.8 2.9-64.7 7-20.7 19.3-29.6 39.8-28.8 18.8.7 31.1 10.9 34.3 28.5.4 2.5.8 30.1.8 61.5l.1 57 25.3.3 25.3.2-.2-62.2c-.1-64.8-.3-69.1-4.5-82.3-5-15.6-17.8-30.7-30.9-36.5-2.7-1.2-5.9-2.6-7-3.1-9.8-4.3-36-6.1-48.9-3.4-13.1 2.9-25.5 9.2-32.8 16.8-2.1 2.1-3.9 3.7-3.9 3.5-.1-.1-.2-20.9-.3-46-.1-29-.5-46-1.1-46.6-2-1.9-13.9-4-22.3-4-5.8 0-10.5.6-14 1.7zM2454 1546.9c-8.4 1.7-13.8 6.8-15.6 14.6-.4 1.6-.8 58.2-.8 125.7l-.1 122.8h25.3c13.8 0 25.2-.3 25.3-.8.1-.9.1-255.2 0-257.4-.2-3.7-23.9-7.1-34.1-4.9zM645 1622.4c-7.5 1.5-14.6 3.3-17.5 4.6-14.8 6.4-23.3 11.8-31.9 20.4-24.3 24.1-33.7 63.7-24.5 102.6 2.3 9.5 10.2 26.6 14.9 32 16.6 19.1 35.9 29.5 61 32.8 7.1.9 38 .9 44.5-.1 17-2.4 30.7-5.7 41.2-9.8 5.7-2.3 5.7-2.6 2-10.9-.9-1.9-3.5-8.7-5.8-15-2.4-6.3-4.4-11.6-4.5-11.8-.1-.1-4.1.9-9 2.4-4.9 1.4-10.2 2.8-11.9 3-1.6.3-4.1.8-5.5 1-1.4.3-9.5.7-18 .9-24.3.4-35.9-2.9-47.7-13.9-5.8-5.3-12.3-15.6-12.3-19.3 0-1.1 7.5-1.3 41.3-1.4 22.6 0 42-.2 42.9-.4.9-.2 3.6-.6 6-.9 21.2-3 35.2-17 37.5-37.5 1.8-16.6-.3-28.8-7.5-42.6-4.6-8.9-16.2-20.7-25.3-25.8-6.5-3.6-21-8.9-27.9-10.2-6.7-1.3-35.3-1.3-42-.1zm33.6 34.9c13.5 5 20.9 14.6 22.1 28.5.8 9.8-1.7 15.9-7.6 18.9-4.2 2.1-5.3 2.2-39.7 2.3h-35.5l.7-5.7c2.2-21 15.7-38.9 33.4-44.4 6.7-2.1 20.5-1.9 26.6.4zM1597 1621.7c-14.1 1.5-41.6 9.8-54.2 16.6l-7.8 4.1V1810h50.5v-69.6c0-60.7.2-69.7 1.5-70.9.8-.7 5.1-2.6 9.5-4.1 7.1-2.5 9.4-2.7 21.5-2.8 14.1 0 24.3 1.7 32.3 5.5l3.8 1.7 4-5.3c4.5-6 6.7-12.7 6.3-19.7-.6-11.6-10.2-18.9-29.4-22.3-6.8-1.2-29.2-1.7-38-.8zM1755 1623.2c-35.9 7.3-61.1 31.5-70.7 67.7-3.5 13.1-4.1 40.8-1.3 54.5 6.6 31.6 26.4 54.4 55.8 64.2 4.3 1.5 8.8 2.8 10.2 3.1 13.9 2.7 18 3.1 35.5 2.8 10.5-.1 20.4-.5 22-.9 1.7-.3 4.4-.8 6-1.1 13.2-2.2 31.6-7.2 36.2-9.8l2.1-1.2-3-8c-1.7-4.4-4.5-11.9-6.4-16.7-1.9-4.9-3.4-9.2-3.4-9.8 0-1.3-.5-1.3-7.6.9-12.4 3.9-21.8 5.3-37 5.6-16.1.3-22.7-.5-31.3-3.6-7.6-2.8-13.2-6.3-18.5-11.6-4.3-4.2-10.6-15-10.6-18 0-1.1 7.4-1.3 40.8-1.4 42.7-.1 42.6-.1 51.8-1.8 12.6-2.4 25.5-11.1 30.1-20.3 8.3-16.5 7.2-40.7-2.5-59.3-4.7-8.8-15.3-19.8-24.7-25.3-19-11.1-48.3-15.1-73.5-10zm38.4 34.8c7.2 2.7 14.7 9.8 17.9 16.8 2.8 6.2 3 20 .4 24.9-3.6 6.7-4.2 6.8-44.5 7.1l-36.4.3.7-5.6c1.6-14.3 7.9-26.6 18.4-36.2 3.9-3.6 12.6-8.2 17.4-9.3 6.3-1.4 19.9-.4 26.1 2zM2046 1622.2c-13.6 1.8-18.5 2.7-23.5 4-2.2.5-4.9 1.2-6.1 1.4-4.6.8-17.8 5.6-23.4 8.4l-6 3v243h50.5v-86.8l3.5 2.8c5.3 4.2 14.6 8.5 24 11.1 7.1 1.9 11 2.3 23 2.3 16.6.1 21.5-.6 32-4.3 11.8-4.1 20.6-9.7 29-18 11-10.9 16.3-19.6 20.9-34.1 3.5-11.2 4.5-19.2 4.4-34.7-.5-53.8-32.8-91.2-85-98.3-8.8-1.2-34.3-1.1-43.3.2zm42.7 41.6c13.1 5 21.3 12.5 27.4 24.7 4.8 9.7 6.7 19.1 6.4 31.6-.3 11.6-2.7 21.5-7.1 29.5-8.3 15.1-20.9 21.7-39.9 21-16.1-.7-26.7-5.8-35-17l-3-3.9-.1-40.1c0-22.1.3-40.8.7-41.7.8-1.5 12.4-5.4 18.4-6.2 1.7-.2 8.4-.3 15-.2 9.3.2 13.2.7 17.2 2.3zM928.8 1622.5c-.2.2-1.7.6-3.3.9-1.7.3-4.3.7-6 1-19 3.4-35.4 13-44.5 26.1-11.5 16.6-11.7 46.3-.3 61.4 12 16 30.7 23.4 69.3 27.6 1.4.1 5.4.6 9 1 23.6 2.5 33.4 8.1 33.2 19.1-.3 12.5-10.9 17.4-36.8 16.8-8.2-.2-16-.5-17.4-.8-1.4-.2-4.1-.7-6-1.1-10.7-1.9-23.9-6.6-35.6-12.5l-9.2-4.7-3.6 6.6c-2 3.6-4.9 8.8-6.4 11.6-1.6 2.7-4.3 7.5-6.1 10.6l-3.2 5.7 3.8 2.3c12 7.3 29.1 13.4 48.8 17.5 11.6 2.4 15.2 2.7 34 2.8 22.9.1 28.9-.4 41-3.5 24.8-6.4 42.5-22.6 48-43.8 2-7.7 1.9-23.4-.2-30.6-3.4-11.7-12.6-22.2-24.6-27.9-7.6-3.7-21.2-7.9-28.7-9-8.7-1.3-26.6-3.6-31-4.1-2.5-.3-6.1-.8-8-1.1-1.9-.2-5.1-.7-7-1-11.5-1.7-19.4-6.4-21.1-12.6-1.4-5.5-.4-9.1 4-13.7 5.4-5.6 11.4-7.2 28.6-7.6 24.9-.5 46.4 5.2 60.4 16.1 2.4 1.9 4.7 3.4 5.1 3.4.4 0 3.2-2.4 6.2-5.3 6.9-6.5 9.3-12.3 8.5-20.3-1.4-13.2-12.1-20.8-38.2-27.3-4.4-1.1-9.8-2.3-12-2.6-4.4-.8-50-1.6-50.7-1zM1365.9 1622.4c-.2.2-2.6.6-5.4.9-15.5 1.6-29.1 7.9-35 16-2.4 3.4-2.9 5.2-3.1 10.5-.2 4.1.3 8 1.3 10.6 1.9 4.6 7.6 12.1 10 13 .9.4 4.7-1.2 9.2-3.8 8.4-4.9 19.5-9.1 26.8-10.3 2.6-.4 10.4-.7 17.3-.7 30.2.3 44.5 11.9 44.5 35.9v4l-6-.5c-16.5-1.3-65.7-.2-68.5 1.5-.4.2-2 .7-3.6.9-5.8 1.1-7 1.4-12.7 3.5-15.3 5.3-25.5 14.9-30.6 28.4-2.8 7.6-3.6 14-3.4 26.9.2 19.7 6.4 32.1 20.3 41.4 9.8 6.4 25 11.4 40.5 13.1 14 1.6 72.6.7 84.8-1.2 1.2-.2 5.4-.6 9.2-1 3.9-.3 9.8-1.1 13.2-1.6l6.2-1.1-.1-59.2c0-62.2-.3-67.3-4.7-80.3-4.6-13.6-14.4-25.8-26.6-33.2-7.1-4.3-21.4-9.7-27.9-10.6-2.7-.3-5.2-.8-5.6-1-2.1-1.3-48.8-3.3-50.1-2.1zm60.1 107c2.4.4 4.6.8 4.8 1 .2.3.4 32.1.2 45.7 0 2.2-.6 2.8-3.2 3.3-13.3 2.6-43.4 2.8-51.7.3-7.8-2.4-13.8-6.2-16.8-10.8-2.1-3.1-2.6-5.4-2.9-11.2-.8-16.7 5.6-24.4 23.2-28 7-1.5 36.7-1.6 46.4-.3zM2270 1622.3c-.3.2-3.4.7-7 1-19.1 1.7-35 10.6-38 21.2-1.3 4.7-.9 12.1 1 17 1.5 4 7.6 11.2 10 12 1.3.4 3.4-.4 6.2-2.3 6.1-4.1 11.3-6.6 19.1-9.1 8.5-2.9 9.8-3.1 23.3-3.5 24.4-.9 39.7 5.8 45.9 19.9 2.2 5 3.8 16.2 2.8 19.2-.3.8-2.4 1-7.1.5-9.2-1-51.3-.9-59.1.1-26.2 3.3-44.1 12.7-51.8 27.4-5.3 10.1-6.5 15.5-6.7 30.3-.3 17.6 3.7 29.3 13.1 38.5 7.9 7.7 23.4 15.2 35.3 17.1 1.9.3 3.7.7 4.1.9 4.2 2.7 71.1 2.6 93.9 0 1.9-.2 6-.7 9-1 3-.3 8.5-1 12.2-1.6l6.7-1.1-.1-59.2c-.1-68.3-.4-72.2-7.6-87.6-9.2-19.7-30.1-33.5-57.2-37.5-2-.3-4.7-.8-6-1.1-3.3-.7-41.4-1.8-42-1.1zm58.4 107.1c2.2.4 4.2.8 4.4 1.1.4.4.6 26.1.3 43.2l-.1 5.2-4.7.7c-2.7.3-5.7.8-6.8 1.1-5.5 1.2-33.5 1-39.5-.3-9.6-2-16.9-6.1-20.4-11.4-2.6-3.7-3.1-5.6-3.3-11.5-.3-9.9 1.2-14.8 6.1-19.8 4.3-4.5 11-7.3 19.6-8.4 2.5-.3 4.6-.7 4.8-.8.6-.5 35.6.3 39.6.9zM276.5 1628.3c-8.2 2.4-11.6 5.6-13.6 12.4-.8 3.2-1.1 25.1-1.1 84.5 0 44.2.1 81.3.1 82.5l.1 2.3h25c23.1 0 25-.1 25.1-1.8.4-9 .1-176.4-.4-176.8-.3-.4-3.5-1.4-7.1-2.4-7.7-2-22.3-2.4-28.1-.7z"/></svg>