<?xml version="1.0" encoding="UTF-8"?>
<svg version="1.1" viewBox="0 0 23 31" xmlns="http://www.w3.org/2000/svg">
 <defs>
  <clipPath id="clipPath5712">
   <rect x=".375" y="19.75" width="22.5" height="11.062" fill="none" stroke="#3b240f" stroke-width=".6" style="paint-order:fill markers stroke"/>
  </clipPath>
 </defs>
 <g transform="translate(0 -1021.4)">
  <path transform="translate(0,1021.4)" d="m11.5 0.5c-7 0-11 4-11 11s9.9375 19 11 19 11-12 11-19-4-11-11-11z" fill="none" stroke="#3b240f" stroke-miterlimit=".8" stroke-width=".6"/>
  <path transform="translate(0,1021.4)" d="m8.7819 27.446c-0.53856-0.6396-1.5581-1.9777-2.2415-2.9419-3.0305-4.2757-5.0366-8.3411-5.6141-11.377-0.1296-0.68136-0.1744-2.144-0.093641-3.0574 0.50441-5.7048 3.977-8.9839 9.8143-9.2673 3.769-0.18305 6.805 0.77779 8.797 2.7841 1.5875 1.5989 2.4722 3.7256 2.7297 6.5621 0.15761 1.736-0.04378 3.2501-0.67916 5.1062-1.1754 3.4335-3.7983 7.875-6.9975 11.849l-0.48148 0.59814h-5.0179z" fill="none" stroke="#81ffc7" stroke-width=".0048828"/>
  <path transform="translate(0,1021.4)" d="m11.278 30.088c-0.33854-0.23918-1.4492-1.3936-2.1449-2.2294-2.5756-3.0944-4.752-6.3741-6.2928-9.4827-1.0523-2.123-1.6328-3.7382-1.9391-5.3955-0.12492-0.67578-0.12491-2.7071 2.7e-6 -3.5645 0.45907-3.1509 1.7512-5.4071 3.9339-6.8688 1.5962-1.069 3.5571-1.6494 5.884-1.7417 3.3072-0.13118 5.8592 0.52644 7.8321 2.0182 1.9689 1.4887 3.1623 3.7222 3.5484 6.6411 0.12051 0.91097 0.14889 2.3771 0.05909 3.0518-0.31587 2.373-1.5576 5.4058-3.5885 8.7646-1.9369 3.2034-5.0507 7.2694-6.5531 8.5574-0.50344 0.43156-0.48851 0.42652-0.73905 0.24951z" fill="#fff" stroke="#81ffc7" stroke-width=".0048828"/>
  <rect x="28.417" y="1048.6" width="4.331" height="3.6681" fill="none" stroke-width="0" style="paint-order:fill markers stroke"/>
  <path transform="translate(0,1021.4)" d="m11.332 30.1c-0.49186-0.33179-1.6942-1.6276-2.8525-3.0743-2.2651-2.829-4.0999-5.6392-5.5189-8.4531-1.279-2.5362-2.0017-4.6717-2.108-6.229-0.062001-0.9083-0.025326-2.3233 0.078226-3.0181 0.36564-2.4534 1.3185-4.465 2.7689-5.8453 1.8771-1.7865 4.4667-2.6731 7.8077-2.6731 2.7118 0 4.8395 0.55612 6.5937 1.7234 1.8895 1.2573 3.1292 3.1033 3.7197 5.539 0.13694 0.56479 0.26096 1.2936 0.31164 1.8313 0.05665 0.6011 0.07522 1.8767 0.03405 2.3397-0.11759 1.3226-0.64176 3.0982-1.4635 4.9572-0.48324 1.0933-1.2747 2.611-1.9718 3.7812-2.0105 3.3749-5.1851 7.531-6.8176 8.9252-0.36959 0.31566-0.39256 0.3234-0.58158 0.19589z" clip-path="url(#clipPath5712)" fill="#81ff6f" stroke-width="0" style="paint-order:fill markers stroke"/>
 </g>
</svg>
