<?xml version="1.0" encoding="UTF-8"?>
<svg version="1.1" viewBox="0 0 23 31" xmlns="http://www.w3.org/2000/svg">
 <defs>
  <clipPath id="clipPath6088">
   <rect x=".17678" y="6.2071" width="22.716" height="24.749" fill="#81ff6f" style="paint-order:markers fill stroke"/>
  </clipPath>
  <clipPath id="clipPath854">
   <rect x=".13932" y="11.959" width="22.849" height="19.134" fill="#81ff6f" stroke-width="0" style="paint-order:markers fill stroke"/>
  </clipPath>
 </defs>
 <g transform="translate(0 -1021.4)">
  <g fill="#fff" fill-opacity=".94118">
   <path transform="translate(0,1021.4)" d="m11.5 0.5c-7 0-11 4-11 11s9.9375 19 11 19 11-12 11-19-4-11-11-11z" stroke="#3b240f" stroke-miterlimit=".8" stroke-width=".6"/>
   <path transform="translate(0,1021.4)" d="m8.7819 27.446c-0.53856-0.6396-1.5581-1.9777-2.2415-2.9419-3.0305-4.2757-5.0366-8.3411-5.6141-11.377-0.1296-0.68136-0.1744-2.144-0.093641-3.0574 0.50441-5.7048 3.977-8.9839 9.8143-9.2673 3.769-0.18305 6.805 0.77779 8.797 2.7841 1.5875 1.5989 2.4722 3.7256 2.7297 6.5621 0.15761 1.736-0.04378 3.2501-0.67916 5.1062-1.1754 3.4335-3.7983 7.875-6.9975 11.849l-0.48148 0.59814h-5.0179z" stroke="#81ffc7" stroke-width=".0048828"/>
   <path transform="translate(0,1021.4)" d="m11.278 30.088c-0.33854-0.23918-1.4492-1.3936-2.1449-2.2294-2.5756-3.0944-4.752-6.3741-6.2928-9.4827-1.0523-2.123-1.6328-3.7382-1.9391-5.3955-0.12492-0.67578-0.12491-2.7071 2.7e-6 -3.5645 0.45907-3.1509 1.7512-5.4071 3.9339-6.8688 1.5962-1.069 3.5571-1.6494 5.884-1.7417 3.3072-0.13118 5.8592 0.52644 7.8321 2.0182 1.9689 1.4887 3.1623 3.7222 3.5484 6.6411 0.12051 0.91097 0.14889 2.3771 0.05909 3.0518-0.31587 2.373-1.5576 5.4058-3.5885 8.7646-1.9369 3.2034-5.0507 7.2694-6.5531 8.5574-0.50344 0.43156-0.48851 0.42652-0.73905 0.24951z" clip-path="url(#clipPath6088)" stroke="#81ffc7" stroke-width=".0048828"/>
   <path transform="translate(0,1021.4)" d="m11.195 29.989c-0.52438-0.41783-1.7216-1.7275-2.7322-2.9887-3.4898-4.3553-6.2776-9.2513-7.223-12.685-0.37128-1.3486-0.37933-1.4146-0.37768-3.0931 0.0013292-1.3467 0.011614-1.561 0.099126-2.0651 0.32268-1.8589 0.86536-3.2699 1.7335-4.5071 0.37559-0.53523 1.1933-1.3765 1.7344-1.7842 1.8386-1.3856 4.1368-2.0513 7.0822-2.0513 2.1951 0 3.9331 0.35062 5.5022 1.11 1.8342 0.88766 3.1162 2.1571 4.0211 3.9819 0.50902 1.0265 0.90862 2.4272 1.069 3.747 0.03224 0.26542 0.05685 0.96532 0.05749 1.6352 9.11e-4 0.95231-0.0141 1.2537-0.08035 1.6131-0.43748 2.373-1.5382 5.0108-3.4023 8.1538-1.5711 2.6488-4.2738 6.3101-5.9506 8.061-0.54789 0.5721-1.0977 1.043-1.2177 1.043-0.05565 0-0.19744-0.07669-0.31508-0.17043z" stroke-width="0" style="paint-order:markers fill stroke"/>
  </g>
  <path transform="translate(0,1021.4)" d="m11.243 30.022c-0.47386-0.34997-1.9351-1.9417-2.9042-3.1636-3.441-4.3385-6.0841-8.9872-7.0768-12.446-0.38826-1.353-0.46554-2.0073-0.42509-3.5992 0.036802-1.4484 0.19868-2.4208 0.6108-3.6689 1.401-4.243 5.1208-6.4796 10.52-6.3253 2.0016 0.057213 3.5909 0.40258 5.0381 1.0948 2.8517 1.3641 4.503 3.8008 5.071 7.4829 0.11945 0.77429 0.11955 2.9464 1.4e-4 3.576-0.66019 3.4813-2.8864 7.838-6.4529 12.628-1.7644 2.3699-3.7398 4.5549-4.118 4.5549-0.04496 0-0.16325-0.0602-0.26287-0.13377z" clip-path="url(#clipPath854)" fill="#81ff6f" stroke-width="0" style="paint-order:markers fill stroke"/>
 </g>
</svg>
